<svg width="121" height="100" viewBox="0 0 121 100" fill="none" xmlns="http://www.w3.org/2000/svg">
<path d="M60.9526 0C35.8796 0 15.5532 20.3264 15.5532 45.3993C15.5504 50.609 16.4456 55.7801 18.1996 60.6856C18.1986 60.6912 18.1986 60.6969 18.1996 60.7025V87.2406C26.6535 94.6407 42.7842 99.6423 61.2918 99.6423C78.5749 99.6423 93.7818 95.2783 102.604 88.672V63.51C102.76 63.1588 102.907 62.8051 103.051 62.4491C105.241 57.0336 106.362 51.2455 106.352 45.4042C106.352 20.3264 86.028 0 60.9526 0ZM90.9333 55.9896C90.5477 57.2094 90.0849 58.4035 89.5476 59.5645C87.0435 65.0484 83.0158 69.6968 77.9444 72.9562C72.8729 76.2155 66.9715 77.9484 60.943 77.9484C54.9144 77.9484 49.013 76.2155 43.9416 72.9562C38.8701 69.6968 34.8424 65.0484 32.3383 59.5645C30.4679 55.4662 29.5014 51.0134 29.5043 46.5084C29.5114 41.9785 30.4973 37.5036 32.3946 33.3901C34.2918 29.2767 37.0556 25.6218 40.4967 22.6757C43.9378 19.7297 47.9748 17.562 52.3315 16.3212C56.6882 15.0804 61.2616 14.7958 65.7385 15.4868C70.2154 16.1777 74.4901 17.828 78.2699 20.3246C82.0498 22.8213 85.2455 26.1052 87.6381 29.9517C90.0308 33.7981 91.5641 38.1162 92.1328 42.6103C92.7015 47.1044 92.2924 51.6683 90.9333 55.9896Z" fill="#00923F"/>
<path d="M92.3891 46.5084C92.3916 49.7246 91.9007 52.9221 90.9336 55.9895C90.5485 57.2095 90.0856 58.4036 89.5479 59.5645C87.0437 65.0483 83.0161 69.6967 77.9446 72.9561C72.8732 76.2154 66.9717 77.9483 60.9432 77.9483C54.9147 77.9483 49.0133 76.2154 43.9418 72.9561C38.8704 69.6967 34.8427 65.0483 32.3386 59.5645C31.8425 58.4795 31.4111 57.3661 31.0467 56.2301C29.6468 51.9087 29.2001 47.3353 29.7371 42.8247C30.2741 38.3142 31.7823 33.9735 34.1576 30.1016C36.533 26.2298 39.7191 22.9186 43.4968 20.3961C47.2745 17.8736 51.5539 16.1997 56.0405 15.4896C60.5271 14.7795 65.1143 15.05 69.4863 16.2826C73.8583 17.5152 77.9113 19.6806 81.3662 22.6297C84.8211 25.5788 87.596 29.2416 89.4997 33.3658C91.4034 37.4901 92.3908 41.9779 92.3939 46.5204L92.3891 46.5084Z" fill="white"/>
<path d="M27.8779 38.1198C27.8463 38.2143 27.7962 38.3015 27.7304 38.3763C27.6646 38.4511 27.5846 38.5121 27.4949 38.5555C27.4053 38.599 27.3079 38.6241 27.2084 38.6295C27.1089 38.6348 27.0094 38.6202 26.9156 38.5865L19.7801 36.1471C19.6847 36.1164 19.5964 36.0669 19.5204 36.0017C19.4444 35.9364 19.3821 35.8566 19.3373 35.767C19.2925 35.6774 19.266 35.5797 19.2594 35.4798C19.2529 35.3798 19.2663 35.2795 19.299 35.1848L20.0207 33.1014C20.0375 33.0508 21.25 29.4566 25.554 30.9241C29.8579 32.3917 28.6165 35.9763 28.6021 36.0268L27.8779 38.1198ZM26.6919 36.9169L27.1562 35.5577C27.2729 35.1447 27.2796 34.7085 27.1755 34.2922C26.9662 33.4261 26.242 32.7838 25.0536 32.3676C23.8651 31.9514 22.8691 32.0332 22.1666 32.6274C21.8508 32.8841 21.6029 33.2146 21.4449 33.5897L20.983 34.9586L26.6919 36.9169Z" fill="white"/>
<path d="M30.6615 29.4879L24.1659 25.6049C23.9988 25.5008 23.8793 25.3352 23.8332 25.1438C23.787 24.9524 23.8179 24.7505 23.9192 24.5817C24.0205 24.4129 24.1841 24.2906 24.3747 24.2413C24.5653 24.1919 24.7677 24.2194 24.9382 24.3179L31.4338 28.2008C31.5229 28.2489 31.6014 28.3146 31.6645 28.3939C31.7276 28.4733 31.774 28.5645 31.8009 28.6622C31.8277 28.76 31.8345 28.8621 31.8209 28.9625C31.8072 29.0629 31.7733 29.1596 31.7213 29.2465C31.6693 29.3335 31.6002 29.409 31.5182 29.4686C31.4362 29.5281 31.3429 29.5705 31.2441 29.593C31.1453 29.6156 31.043 29.6179 30.9433 29.5998C30.8435 29.5817 30.7485 29.5437 30.6639 29.4879H30.6615Z" fill="white"/>
<path d="M37.0631 21.9023L30.3053 20.9545L34.0871 24.4741C34.2317 24.613 34.3157 24.8031 34.3211 25.0035C34.3265 25.2038 34.2528 25.3982 34.116 25.5447C33.9801 25.6899 33.7923 25.7755 33.5935 25.7827C33.3947 25.7899 33.2011 25.7182 33.0551 25.5832L27.5218 20.4324C27.4042 20.3231 27.3247 20.1791 27.2947 20.0214C27.2648 19.8637 27.286 19.7006 27.3553 19.5558C27.4246 19.411 27.5383 19.2922 27.68 19.2166C27.8216 19.141 27.9836 19.1127 28.1425 19.1357L34.9003 20.0836L31.1184 16.5663C30.9781 16.4279 30.8972 16.2401 30.893 16.043C30.8888 15.8459 30.9616 15.6549 31.0959 15.5106C31.2302 15.3663 31.4155 15.28 31.6124 15.27C31.8093 15.2601 32.0023 15.3272 32.1505 15.4573L37.6838 20.608C37.8273 20.7449 37.9117 20.9325 37.9189 21.1307C37.9261 21.3289 37.8555 21.5221 37.7223 21.669C37.6401 21.7591 37.5369 21.8276 37.4219 21.8683C37.3069 21.909 37.1837 21.9207 37.0631 21.9023Z" fill="white"/>
<path d="M44.8749 16.2942L38.6463 13.5083L41.2927 17.9373C41.3893 18.1093 41.415 18.3121 41.3645 18.5028C41.3139 18.6934 41.191 18.8568 41.0219 18.9583C40.8527 19.0598 40.6507 19.0913 40.4587 19.0462C40.2667 19.0011 40.0998 18.883 39.9935 18.7168L36.1154 12.2405C36.0646 12.155 36.031 12.0604 36.0168 11.962C36.0026 11.8636 36.0079 11.7634 36.0325 11.6671C36.0571 11.5707 36.1004 11.4802 36.1601 11.4007C36.2197 11.3211 36.2945 11.2542 36.3801 11.2036C36.4836 11.1431 36.6002 11.1084 36.72 11.1025C36.8398 11.0967 36.9592 11.1198 37.0681 11.1699L43.2967 13.9534L40.6503 9.52434C40.5589 9.35269 40.5369 9.15245 40.589 8.96505C40.6411 8.77766 40.7632 8.61746 40.9301 8.51762C41.097 8.41778 41.2959 8.38594 41.4857 8.42869C41.6754 8.47144 41.8415 8.5855 41.9494 8.74728L45.8348 15.2284C45.9352 15.3996 45.9645 15.6033 45.9164 15.7959C45.8683 15.9884 45.7465 16.1544 45.5773 16.2581C45.4723 16.3214 45.3532 16.3579 45.2306 16.3642C45.1081 16.3705 44.9859 16.3464 44.8749 16.2942Z" fill="white"/>
<path d="M53.2496 5.04527C53.2866 5.19848 53.2774 5.35919 53.2232 5.50718L51.7075 9.59699L52.6025 13.0276C52.6436 13.2186 52.6095 13.418 52.5071 13.5844C52.4047 13.7508 52.2421 13.8712 52.0531 13.9205C51.8641 13.9698 51.6634 13.9443 51.4927 13.8492C51.3221 13.7541 51.1948 13.5968 51.1374 13.4101L50.2424 9.97951L46.9224 7.15273C46.8035 7.06752 46.7183 6.94318 46.6819 6.80148C46.6342 6.64628 46.638 6.47981 46.6926 6.32693C46.7473 6.17404 46.8499 6.04291 46.9852 5.9531C47.1204 5.86328 47.2811 5.81959 47.4432 5.82855C47.6053 5.8375 47.7602 5.89861 47.8848 6.00277L50.5744 8.28344L51.8134 4.98753C51.8539 4.87087 51.9225 4.76596 52.0131 4.68205C52.1037 4.59814 52.2136 4.53781 52.333 4.50638C52.4825 4.4706 52.6392 4.48066 52.7829 4.53525C52.8959 4.57663 52.9973 4.64456 53.0785 4.73333C53.1597 4.82209 53.2184 4.92907 53.2496 5.04527Z" fill="white"/>
<path d="M65.1169 11.7239C64.4585 10.7174 64.2268 9.49051 64.4729 8.31318C64.719 7.13585 65.4228 6.10451 66.4293 5.44604C67.4358 4.78757 68.6627 4.55592 69.84 4.80203C71.0174 5.04814 72.0487 5.75187 72.7072 6.75839C72.7596 6.83849 72.7952 6.92844 72.8117 7.02274C72.8283 7.11705 72.8254 7.21374 72.8034 7.30691C72.7839 7.40465 72.7452 7.49754 72.6894 7.58015C72.6336 7.66276 72.562 7.73344 72.4786 7.78806C72.3968 7.84393 72.3045 7.88237 72.2072 7.90099C72.1099 7.91962 72.0099 7.91803 71.9133 7.89632C71.8146 7.87945 71.7206 7.84176 71.6377 7.78576C71.5547 7.72976 71.4846 7.65674 71.4321 7.57154C71.2127 7.23941 70.9296 6.95403 70.5992 6.73188C70.2689 6.50973 69.8979 6.35521 69.5075 6.27724C69.1195 6.19397 68.7188 6.18896 68.3288 6.26249C67.9388 6.33602 67.5675 6.48662 67.2364 6.70546C66.9025 6.92094 66.6148 7.20072 66.3901 7.5285C66.1653 7.85628 66.0081 8.2255 65.9275 8.61465C65.8469 9.00381 65.8445 9.40511 65.9206 9.79519C65.9966 10.1853 66.1495 10.5563 66.3704 10.8867C66.5847 11.2213 66.8639 11.5096 67.1916 11.7344C67.5193 11.9592 67.8888 12.116 68.2781 12.1954C68.9625 12.337 69.6747 12.2376 70.2942 11.914L70.6189 10.355L68.7665 9.9701C68.667 9.95181 68.5722 9.91358 68.4878 9.85772C68.4034 9.80186 68.3312 9.72952 68.2755 9.64504C68.2198 9.56056 68.1818 9.4657 68.1637 9.36614C68.1456 9.26659 68.1478 9.1644 68.1702 9.06572C68.1926 8.96704 68.2347 8.87391 68.294 8.79193C68.3533 8.70994 68.4286 8.64079 68.5153 8.58864C68.602 8.53649 68.6984 8.50241 68.7986 8.48844C68.8988 8.47448 69.0008 8.48092 69.0985 8.50739L71.6847 9.04388C71.7812 9.06393 71.8728 9.1028 71.9543 9.15827C72.0358 9.21373 72.1056 9.28471 72.1597 9.36715C72.2137 9.44958 72.251 9.54186 72.2694 9.63871C72.2878 9.73556 72.287 9.83509 72.2669 9.93161L71.7256 12.5419C71.6834 12.7388 71.566 12.9114 71.3984 13.023C70.3923 13.6807 69.1667 13.9133 67.9896 13.6699C66.8124 13.4264 65.7796 12.7268 65.1169 11.7239Z" fill="white"/>
<path d="M79.4889 17.1388C79.4964 17.2379 79.484 17.3374 79.4525 17.4315C79.4209 17.5257 79.3708 17.6125 79.3051 17.687C79.2394 17.7614 79.1594 17.8219 79.0699 17.865C78.9804 17.908 78.8832 17.9327 78.784 17.9376C78.6467 17.9481 78.5091 17.9198 78.3871 17.8558C78.2735 17.7956 78.1768 17.7079 78.1058 17.6008C78.0347 17.4936 77.9917 17.3704 77.9805 17.2423L77.7688 14.1148L76.6501 13.5158L75.5796 15.515C75.4821 15.6899 75.3198 15.8195 75.1275 15.8758C74.9353 15.9321 74.7287 15.9105 74.5523 15.8157C74.3767 15.7213 74.2458 15.5612 74.188 15.3705C74.1303 15.1797 74.1506 14.9739 74.2444 14.798L77.8121 8.11479C77.9065 7.93925 78.0666 7.80826 78.2573 7.75054C78.4481 7.69282 78.6539 7.71307 78.8298 7.80685L80.6437 8.76916C81.0875 9.02478 81.4727 9.37064 81.7744 9.7844C82.4264 10.7082 82.4769 11.7908 81.9019 12.8638C81.648 13.3087 81.3018 13.6943 80.8867 13.9945C80.4293 14.3214 79.8827 14.5002 79.3205 14.5069L79.4889 17.1388ZM77.3646 12.1709L78.505 12.7796C79.0751 13.0851 79.5443 13.0875 79.9821 12.794C80.2198 12.6291 80.4192 12.4149 80.5667 12.1661C80.8723 11.5959 80.8626 11.1196 80.5451 10.6721C80.3791 10.4469 80.1677 10.2592 79.9244 10.1212L78.784 9.51014L77.3646 12.1709Z" fill="white"/>
<path d="M86.009 23.1551C85.941 23.2278 85.8594 23.2864 85.7687 23.3275C85.6781 23.3686 85.5802 23.3913 85.4807 23.3944C85.3812 23.3976 85.2821 23.381 85.189 23.3457C85.096 23.3104 85.0108 23.2571 84.9384 23.1887L81.8975 20.3836C81.8236 20.3168 81.7637 20.2361 81.7211 20.146C81.6785 20.0559 81.6542 19.9583 81.6495 19.8588C81.6448 19.7593 81.6599 19.6599 81.6937 19.5662C81.7276 19.4725 81.7797 19.3865 81.847 19.313L86.9809 13.7629C87.0488 13.6901 87.1306 13.6314 87.2213 13.5904C87.3121 13.5493 87.4101 13.5267 87.5097 13.5238C87.6092 13.5208 87.7084 13.5377 87.8014 13.5734C87.8944 13.6091 87.9794 13.6629 88.0515 13.7317L91.0924 16.5344C91.1684 16.6012 91.2302 16.6825 91.2743 16.7736C91.3184 16.8647 91.3437 16.9637 91.3489 17.0648C91.3541 17.1658 91.339 17.2669 91.3045 17.362C91.27 17.4571 91.2168 17.5444 91.148 17.6186C91.0793 17.6928 90.9963 17.7525 90.9041 17.7942C90.8119 17.8359 90.7123 17.8586 90.6111 17.8612C90.51 17.8637 90.4093 17.846 90.3151 17.809C90.2209 17.772 90.1351 17.7165 90.0627 17.6458L87.5727 15.3435L86.0354 17.0155L87.9745 18.8078C88.1209 18.9431 88.2076 19.131 88.2155 19.3302C88.2234 19.5294 88.1519 19.7235 88.0166 19.87C87.8813 20.0164 87.6934 20.1031 87.4942 20.111C87.2951 20.1189 87.1009 20.0473 86.9545 19.9121L85.0154 18.1174L83.4781 19.7798L85.9681 22.0677C86.0436 22.1355 86.1046 22.2178 86.1477 22.3098C86.1907 22.4017 86.2149 22.5013 86.2187 22.6027C86.2225 22.7041 86.2059 22.8053 86.1699 22.9002C86.1339 22.995 86.0791 23.0817 86.009 23.1551Z" fill="white"/>
<path d="M90.9911 30.2597C90.9067 30.3129 90.8126 30.3488 90.7142 30.3654C90.6158 30.3821 90.5151 30.3791 90.4179 30.3568C90.3207 30.3344 90.2288 30.2931 90.1476 30.2352C90.0664 30.1772 89.9974 30.1038 89.9446 30.0192L87.6976 26.538C87.6427 26.455 87.6048 26.362 87.5859 26.2642C87.5671 26.1665 87.5677 26.066 87.5879 25.9686C87.608 25.8711 87.6472 25.7785 87.7032 25.6963C87.7592 25.614 87.8309 25.5436 87.9141 25.4891L94.263 21.3873C94.3473 21.3338 94.4415 21.2976 94.5399 21.2808C94.6383 21.264 94.7391 21.2668 94.8364 21.2892C94.9337 21.3116 95.0257 21.353 95.1069 21.4112C95.1881 21.4693 95.2569 21.5429 95.3095 21.6278L97.5565 25.1066C97.6124 25.1901 97.651 25.284 97.6703 25.3826C97.6896 25.4812 97.689 25.5827 97.6687 25.6812C97.6483 25.7796 97.6086 25.873 97.5518 25.9559C97.4951 26.0388 97.4224 26.1097 97.338 26.1642C97.2536 26.2188 97.1591 26.256 97.0602 26.2737C96.9613 26.2915 96.8598 26.2894 96.7617 26.2675C96.6636 26.2456 96.5709 26.2045 96.4888 26.1464C96.4068 26.0884 96.3371 26.0146 96.2838 25.9294L94.4434 23.0809L92.5404 24.3103L93.9839 26.5284C94.0375 26.6112 94.0742 26.7037 94.092 26.8006C94.1098 26.8976 94.1083 26.9971 94.0876 27.0935C94.067 27.1899 94.0275 27.2813 93.9715 27.3625C93.9156 27.4436 93.8442 27.5129 93.7614 27.5665C93.6786 27.62 93.5861 27.6568 93.4891 27.6746C93.3922 27.6924 93.2926 27.6909 93.1962 27.6702C93.0998 27.6495 93.0085 27.6101 92.9273 27.5541C92.8462 27.4981 92.7768 27.4267 92.7233 27.3439L91.2798 25.1258L89.3769 26.3552L91.2173 29.2036C91.2729 29.2875 91.3112 29.3816 91.3299 29.4804C91.3486 29.5793 91.3474 29.6809 91.3264 29.7792C91.3053 29.8776 91.2648 29.9708 91.2072 30.0533C91.1497 30.1358 91.0762 30.206 90.9911 30.2597Z" fill="white"/>
<path d="M93.5989 38.2157L97.7609 32.8076L92.8339 34.3593C92.6418 34.4165 92.435 34.3958 92.2581 34.3017C92.0811 34.2077 91.9484 34.0477 91.8884 33.8565C91.8284 33.6676 91.8452 33.4627 91.9353 33.2861C92.0254 33.1096 92.1814 32.9757 92.3696 32.9134L99.5869 30.6448C99.7401 30.5964 99.9048 30.5983 100.057 30.6503C100.209 30.7022 100.34 30.8014 100.432 30.9333C100.524 31.0653 100.571 31.2231 100.566 31.3837C100.562 31.5443 100.506 31.6993 100.407 31.826L96.2501 37.2246L101.177 35.6728C101.365 35.6248 101.564 35.6505 101.733 35.7447C101.903 35.8389 102.03 35.9944 102.088 36.1793C102.146 36.3642 102.131 36.5644 102.046 36.7386C101.962 36.9129 101.813 37.0481 101.632 37.1163L94.4145 39.385C94.2615 39.4315 94.0978 39.4284 93.9467 39.376C93.7957 39.3235 93.6651 39.2245 93.5739 39.0932C93.4827 38.9619 93.4356 38.805 93.4392 38.6452C93.4428 38.4853 93.4971 38.3308 93.5941 38.2037L93.5989 38.2157Z" fill="white"/>
<path d="M37.316 45.0696L37.2823 45.8467L33.231 45.6638L33.2646 44.8892L37.316 45.0696Z" fill="#00923F"/>
<path d="M37.944 40.6937L35.0956 42.8925L37.4725 43.3208L37.3354 44.0834L33.3418 43.3617L33.3586 43.2799L36.2456 41.0882L33.8398 40.6528L33.9769 39.8901L37.9681 40.6119L37.944 40.6937Z" fill="#00923F"/>
<path d="M35.8989 36.1345L35.538 37.2243L38.7377 38.2925L38.4971 39.031L35.2975 37.9605L34.9366 39.0767L34.2822 38.8578L35.2662 35.918L35.8989 36.1345Z" fill="#00923F"/>
<path d="M36.7144 34.4869L37.6142 34.9681L38.5284 33.2311L39.1514 33.5583L38.2373 35.2977L39.0817 35.7403L40.1114 33.782L40.732 34.1068L39.3391 36.7531L35.7449 34.8646L37.1378 32.2183L37.7465 32.5382L36.7144 34.4869Z" fill="#00923F"/>
<path d="M41.603 32.8414L41.1219 33.4621L37.8958 31.013L39.0072 29.5407C39.1227 29.3839 39.2673 29.2508 39.433 29.1485C39.5838 29.0549 39.7527 28.9942 39.9286 28.9705C40.105 28.9475 40.2843 28.9606 40.4555 29.009C40.6408 29.0623 40.8145 29.1496 40.9679 29.2664C41.1989 29.4338 41.3741 29.6668 41.4707 29.9352C41.5595 30.1897 41.567 30.4654 41.4924 30.7243C42.0601 30.7243 42.6263 30.7299 43.1909 30.7412L42.6351 31.4797C42.3705 31.4797 42.1034 31.4797 41.8388 31.4797L41.0377 31.4557L40.5734 32.0668L41.603 32.8414ZM40.0225 31.6385L40.6672 30.7869C40.7111 30.7267 40.7437 30.659 40.7634 30.5872C40.7878 30.5095 40.7952 30.4274 40.7851 30.3466C40.7727 30.2621 40.745 30.1806 40.7033 30.106C40.6515 30.0173 40.5819 29.9403 40.4988 29.8799C40.4415 29.8386 40.3812 29.8016 40.3184 29.7692C40.2429 29.7321 40.1614 29.7085 40.0778 29.6995C39.988 29.6904 39.8973 29.7027 39.8132 29.7356C39.709 29.7815 39.6198 29.8556 39.5557 29.9497L38.911 30.8013L40.0225 31.6385Z" fill="#00923F"/>
<path d="M46.0822 28.0108L42.4736 28.0541L44.1119 29.8247L43.5441 30.3516L40.7871 27.3756L40.8473 27.3203L44.4728 27.3059L42.8056 25.5064L43.3757 24.9795L46.1327 27.9554L46.0822 28.0108Z" fill="#00923F"/>
<path d="M46.4649 27.6685L46.0415 23.1312L46.1089 23.0903L50.0327 25.4023L49.3109 25.8546L48.7023 25.4841L47.088 26.5113L47.1674 27.2162L46.4649 27.6685ZM47.0519 25.7439L48.0311 25.1232L46.8859 24.4015L47.0519 25.7439Z" fill="#00923F"/>
<path d="M50.9975 21.3103L49.9462 21.7914L51.3728 24.8491L50.6703 25.1956L49.2437 22.1402L48.1876 22.6334L47.8965 22.0079L50.7064 20.6968L50.9975 21.3103Z" fill="#00923F"/>
<path d="M53.7883 23.9445L53.0522 24.185L51.7603 20.3358L52.4964 20.0952L53.7883 23.9445Z" fill="#00923F"/>
<path d="M56.5889 23.3192C56.3143 23.3758 56.0311 23.3758 55.7565 23.3192C55.2223 23.1997 54.7541 22.8804 54.4478 22.4266C54.2921 22.1919 54.1851 21.9283 54.133 21.6514C54.0809 21.3746 54.0849 21.0901 54.1447 20.8148C54.2021 20.5486 54.3108 20.2961 54.4646 20.0714C54.6179 19.8476 54.8121 19.655 55.0372 19.5036C55.2708 19.3474 55.5336 19.2401 55.8098 19.188C56.0859 19.1359 56.3698 19.1402 56.6443 19.2005C57.1803 19.3186 57.6501 19.6393 57.9554 20.0955C58.1134 20.3273 58.2216 20.5895 58.273 20.8653C58.3269 21.143 58.3228 21.4289 58.2609 21.7049C58.1433 22.2399 57.8235 22.7088 57.3684 23.0137C57.1328 23.1689 56.8673 23.273 56.5889 23.3192ZM55.9442 19.8886C55.7706 19.9227 55.6064 19.9941 55.463 20.0979C55.3206 20.1989 55.1989 20.3263 55.1046 20.4732C55.0093 20.6198 54.9424 20.783 54.9073 20.9543C54.8712 21.1305 54.8712 21.3122 54.9073 21.4884C54.9391 21.6667 55.008 21.8363 55.1094 21.9864C55.2055 22.1341 55.3278 22.2629 55.4702 22.3665C55.6149 22.4711 55.7782 22.5471 55.9514 22.5902C56.1247 22.6336 56.3053 22.6385 56.4807 22.6047C56.6544 22.5723 56.8188 22.5017 56.9618 22.3978C57.1038 22.2953 57.2253 22.1672 57.3203 22.0201C57.4134 21.8723 57.4801 21.7095 57.5176 21.5389C57.556 21.3622 57.5586 21.1796 57.5251 21.0019C57.4917 20.8242 57.4228 20.655 57.3227 20.5044C57.1317 20.207 56.8352 19.9929 56.4927 19.9054C56.3136 19.8576 56.1259 19.8518 55.9442 19.8886Z" fill="#00923F"/>
<path d="M62.7233 22.8381L60.0625 20.4155V22.8213H59.2878L59.3023 18.7651H59.3865L62.0449 21.2286V18.7772H62.8219L62.8051 22.8309L62.7233 22.8381Z" fill="#00923F"/>
<path d="M63.2283 22.8479L66.019 19.2393L66.0935 19.2537L67.383 23.6226L66.5531 23.4662L66.3606 22.783L64.4793 22.4269L64.0583 22.9971L63.2283 22.8479ZM64.9773 21.8399L66.1152 22.054L65.776 20.7429L64.9773 21.8399Z" fill="#00923F"/>
<path d="M70.6527 24.1054L70.4121 24.7526L67.6575 23.7734L69.0167 19.9482L69.7385 20.2081L68.6102 23.3861L70.6527 24.1054Z" fill="#00923F"/>
<path d="M72.7073 25.2898L73.3977 24.9939C73.4905 25.2183 73.6015 25.4348 73.7297 25.641C73.8517 25.8396 74.016 26.0088 74.2109 26.1366C74.3044 26.2001 74.4076 26.248 74.5164 26.2786C74.6051 26.3018 74.6967 26.3115 74.7883 26.3074C74.865 26.3016 74.9397 26.2794 75.0072 26.2425C75.0654 26.2108 75.1149 26.1654 75.1515 26.1101C75.1935 26.0462 75.2114 25.9695 75.2021 25.8936C75.1874 25.8128 75.1563 25.7358 75.1106 25.6675C75.0533 25.5807 74.9872 25.5001 74.9134 25.4269C74.8316 25.3427 74.7474 25.2585 74.656 25.1743L74.4467 24.977C74.3625 24.9009 74.2822 24.8206 74.2061 24.7364C74.1276 24.6434 74.0576 24.5435 73.9968 24.4381C73.9344 24.3311 73.889 24.215 73.862 24.0941C73.8351 23.97 73.831 23.842 73.85 23.7164C73.8749 23.5734 73.9299 23.4373 74.0112 23.317C74.1178 23.1391 74.2708 22.9936 74.4539 22.896C74.6124 22.818 74.7873 22.7792 74.9639 22.783C75.1439 22.7882 75.3216 22.8257 75.4883 22.8936C75.6562 22.9579 75.8174 23.0385 75.9695 23.1342C76.0972 23.2166 76.2186 23.3083 76.3328 23.4085C76.4288 23.494 76.5159 23.5891 76.5926 23.6923C76.671 23.7852 76.7395 23.886 76.7971 23.9931C76.8548 24.1069 76.9126 24.2344 76.9703 24.3756L76.275 24.6547C76.1961 24.4586 76.0953 24.2722 75.9743 24.0989C75.8628 23.9429 75.7223 23.8098 75.5605 23.7068C75.4958 23.6664 75.4274 23.6326 75.356 23.6057C75.2788 23.5743 75.198 23.5525 75.1155 23.5408C75.0348 23.5305 74.9529 23.5371 74.8749 23.56C74.8021 23.5813 74.7402 23.6295 74.7017 23.6947C74.6796 23.7262 74.6647 23.7621 74.6581 23.7999C74.6514 23.8378 74.6532 23.8766 74.6632 23.9137C74.6881 24.0002 74.728 24.0816 74.7811 24.1543C74.8429 24.2396 74.9112 24.3201 74.9855 24.3948L75.2141 24.6354C75.2702 24.6931 75.3376 24.7581 75.4162 24.8303C75.5005 24.9062 75.5808 24.9865 75.6568 25.0709C75.7351 25.1622 75.8052 25.2605 75.8661 25.3644C75.9298 25.469 75.9753 25.5837 76.0008 25.7036C76.0261 25.8306 76.0261 25.9614 76.0008 26.0885C75.9696 26.2437 75.9075 26.391 75.8179 26.5215C75.7208 26.6837 75.5874 26.8213 75.4282 26.9233C75.2832 27.0141 75.1178 27.067 74.9471 27.0773C74.7654 27.0875 74.5835 27.0638 74.4106 27.0075C74.2105 26.9404 74.0197 26.8483 73.8428 26.7332C73.684 26.6336 73.535 26.5192 73.3977 26.3916C73.1831 26.1848 73.0086 25.9401 72.8829 25.6699C72.8276 25.5664 72.7698 25.4365 72.7073 25.2898Z" fill="#00923F"/>
<path d="M79.0805 29.6536C78.9065 29.7129 78.7251 29.7478 78.5416 29.757C78.3585 29.7664 78.1751 29.7526 77.9955 29.7161C77.6232 29.6399 77.2789 29.4636 76.9995 29.2061C76.7949 29.0166 76.6312 28.7874 76.5183 28.5325C76.2916 28.0335 76.2674 27.4659 76.451 26.9495C76.5406 26.6811 76.6866 26.435 76.8792 26.2278C77.0682 26.0227 77.2975 25.8589 77.5528 25.7466C77.8 25.6349 78.0661 25.5713 78.3371 25.5589C78.6084 25.5478 78.8793 25.5878 79.1358 25.6768C79.4032 25.7685 79.6489 25.9143 79.8575 26.1051C79.9988 26.2354 80.1218 26.3844 80.2232 26.5477C80.419 26.8625 80.5277 27.2237 80.5384 27.5942C80.5464 27.7763 80.5286 27.9585 80.4854 28.1355L79.7637 27.8613C79.7807 27.7539 79.7856 27.645 79.7781 27.5365C79.7725 27.4249 79.7539 27.3143 79.7228 27.2069C79.6926 27.0992 79.649 26.9957 79.5929 26.899C79.4424 26.646 79.2031 26.4582 78.9217 26.3721C78.7564 26.319 78.5823 26.2986 78.4093 26.312C78.2333 26.3244 78.0612 26.3692 77.9016 26.4443C77.7387 26.52 77.5924 26.6271 77.471 26.7594C77.3477 26.8921 77.2528 27.0484 77.1919 27.2189C77.1331 27.3842 77.1029 27.5583 77.1029 27.7338C77.1058 27.9074 77.1417 28.0788 77.2088 28.239C77.2763 28.4054 77.3808 28.5543 77.5143 28.6744C77.5975 28.7505 77.6916 28.8137 77.7934 28.8621C77.8944 28.9098 78.0011 28.9446 78.1109 28.9655C78.221 28.9875 78.3332 28.9963 78.4453 28.992C78.5548 28.9869 78.6635 28.9716 78.7701 28.9463L79.0805 29.6536Z" fill="#00923F"/>
<path d="M84.1469 31.2098L80.9063 33.6588L80.4396 33.0382L81.7267 32.0638L80.5238 30.4664L79.2367 31.4287L78.7676 30.808L82.0082 28.3613L82.4749 28.9796L81.0723 30.0406L82.2752 31.638L83.6778 30.577L84.1469 31.2098Z" fill="#00923F"/>
<path d="M82.1138 36.0746C81.9887 35.8241 81.9166 35.5506 81.9021 35.271C81.8886 34.9994 81.9262 34.7277 82.0127 34.4699C82.0999 34.2132 82.2355 33.9755 82.4121 33.7698C82.596 33.5554 82.822 33.381 83.0761 33.2574C83.3273 33.132 83.6017 33.0599 83.882 33.0457C84.4301 33.0133 84.9693 33.1953 85.3856 33.5533C85.5979 33.7373 85.7711 33.962 85.895 34.214C86.019 34.4661 86.0912 34.7404 86.1074 35.0208C86.1208 35.2924 86.0833 35.5642 85.9967 35.8219C85.9096 36.0792 85.7731 36.317 85.5949 36.522C85.4131 36.7367 85.1886 36.9112 84.9358 37.0345C84.6831 37.1608 84.4071 37.2337 84.125 37.2486C83.8542 37.262 83.5833 37.2245 83.3263 37.1379C83.0688 37.0507 82.8304 36.9152 82.6238 36.7385C82.4102 36.5544 82.2367 36.3284 82.1138 36.0746ZM85.2413 34.5349C85.1628 34.3739 85.0494 34.2326 84.9093 34.1211C84.7735 34.0127 84.6184 33.9311 84.4522 33.8805C84.2835 33.8279 84.1065 33.8066 83.9302 33.8179C83.5668 33.844 83.2282 34.0116 82.9871 34.2847C82.8712 34.4174 82.78 34.5697 82.7176 34.7345C82.6574 34.8985 82.6281 35.0723 82.631 35.247C82.6342 35.426 82.6778 35.602 82.7585 35.7618C82.8351 35.9233 82.9479 36.0649 83.0881 36.1756C83.2255 36.2829 83.3812 36.3644 83.5476 36.4162C83.7168 36.4664 83.8935 36.4868 84.0697 36.4763C84.2504 36.4646 84.427 36.4172 84.5893 36.3368C84.7506 36.2576 84.8945 36.1472 85.0127 36.012C85.1298 35.8792 85.2212 35.7259 85.2822 35.5597C85.343 35.3968 85.3716 35.2235 85.3664 35.0497C85.3656 34.8712 85.3245 34.6952 85.2461 34.5349H85.2413Z" fill="#00923F"/>
<path d="M83.7376 40.3786C83.6635 40.1076 83.6463 39.8242 83.6871 39.5462C83.7641 39.004 84.0466 38.5122 84.4762 38.1725C84.698 37.9972 84.9535 37.8695 85.2268 37.7972C85.4978 37.7231 85.7812 37.7058 86.0592 37.7467C86.3284 37.7839 86.5881 37.8721 86.8242 38.0065C87.0602 38.1418 87.2678 38.3215 87.4353 38.5358C87.6086 38.7564 87.7358 39.0095 87.8094 39.2802C87.883 39.5509 87.9014 39.8336 87.8635 40.1116C87.7868 40.6545 87.5032 41.1467 87.072 41.4853C86.8515 41.6593 86.5977 41.7862 86.3262 41.8582C86.0539 41.934 85.7687 41.9521 85.489 41.9111C85.2204 41.8731 84.9615 41.7841 84.7264 41.6489C84.4915 41.5131 84.2842 41.3344 84.1153 41.122C83.9398 40.9027 83.8113 40.6497 83.7376 40.3786ZM87.1057 39.4717C87.0629 39.2952 86.9806 39.1307 86.8651 38.9905C86.7524 38.8577 86.6162 38.7468 86.4634 38.6633C86.3084 38.5805 86.1396 38.5267 85.9654 38.5045C85.7868 38.4806 85.6054 38.492 85.4313 38.5382C85.2562 38.5847 85.0924 38.6666 84.9501 38.7788C84.8102 38.8878 84.6905 39.0206 84.5965 39.1709C84.5061 39.3185 84.4441 39.4817 84.4136 39.6521C84.3808 39.8288 84.3891 40.0107 84.4377 40.1838C84.4817 40.3562 84.5639 40.5165 84.6783 40.6529C84.7908 40.7868 84.928 40.8979 85.0824 40.9801C85.2387 41.0623 85.408 41.1169 85.5828 41.1413C85.7614 41.1645 85.9428 41.1523 86.1166 41.1052C86.2905 41.0582 86.4533 40.9772 86.5957 40.867C86.7356 40.7589 86.8553 40.627 86.9493 40.4773C87.0378 40.329 87.0989 40.166 87.1298 39.9961C87.1612 39.8218 87.1538 39.6427 87.1081 39.4717H87.1057Z" fill="#00923F"/>
<path d="M85.3662 45.8848L84.6829 45.9473L84.4062 43.0388L88.4504 42.6562L88.5225 43.4285L85.1544 43.7461L85.3662 45.8848Z" fill="#00923F"/>
<path d="M89.5477 59.5649C87.0435 65.0488 83.0159 69.6972 77.9444 72.9565C72.873 76.2159 66.9715 77.9488 60.943 77.9488C54.9145 77.9488 49.0131 76.2159 43.9416 72.9565C38.8702 69.6972 34.8425 65.0488 32.3384 59.5649H89.5477Z" fill="#99CC33"/>
<path d="M18.1901 67.4028V88.6963L0.363272 91.8431L0 91.7589V76.6603L18.1901 67.4028Z" fill="#99CC33"/>
<path d="M18.1901 88.6963V96.07L0.363281 91.843L18.1901 88.6963Z" fill="#00923F"/>
<path d="M102.45 67.4028V88.6963L120.277 91.8431L120.64 91.7589V76.6603L102.45 67.4028Z" fill="#99CC33"/>
<path d="M102.45 88.6963V96.07L120.277 91.843L102.45 88.6963Z" fill="#00923F"/>
<path d="M27.7482 84.1201L27.231 84.914L28.7322 85.8908L28.3737 86.4441L26.8725 85.4649L26.3913 86.2131L28.0754 87.3126L27.7193 87.8611L25.4338 86.3719L27.5028 83.1963L29.7883 84.6831L29.437 85.222L27.7482 84.1201Z" fill="white"/>
<path d="M30.4333 87.1247L29.969 84.7983L30.7725 85.1736L31.066 86.8144L32.5095 85.9892L33.3082 86.3621L31.232 87.5048L31.6819 89.7855L30.8808 89.4102L30.6065 87.8128L29.204 88.6139L28.4028 88.2386L30.4333 87.1247Z" fill="white"/>
<path d="M35.6418 90.2071C35.5157 90.3216 35.3749 90.4187 35.2232 90.4958C35.0704 90.5707 34.9087 90.6256 34.742 90.6594C34.5754 90.6958 34.4044 90.7079 34.2344 90.6955C33.801 90.6684 33.3908 90.4905 33.0748 90.1927C32.8943 90.0205 32.7481 89.8156 32.6442 89.5889C32.5401 89.3616 32.4797 89.1167 32.4661 88.8671C32.4517 88.6046 32.4895 88.3418 32.5775 88.094C32.6655 87.8462 32.8018 87.6183 32.9786 87.4237C33.1482 87.238 33.3515 87.0862 33.5776 86.9762C33.8037 86.8666 34.0487 86.8013 34.2993 86.7837C34.7325 86.7556 35.162 86.8789 35.5143 87.1326C35.6529 87.2317 35.7775 87.349 35.8847 87.4814C35.9903 87.6131 36.0784 87.7578 36.147 87.912C36.2165 88.0652 36.2651 88.227 36.2913 88.3932L35.5696 88.4269C35.5459 88.329 35.512 88.2338 35.4685 88.143C35.425 88.0505 35.3709 87.9633 35.3074 87.8832C35.2443 87.8016 35.1707 87.7288 35.0884 87.6666C35.007 87.6036 34.9161 87.5541 34.819 87.5199C34.6651 87.4643 34.5007 87.4437 34.3378 87.4597C34.1793 87.4782 34.0254 87.5246 33.8831 87.5969C33.74 87.6744 33.6114 87.7761 33.503 87.8976C33.3908 88.0227 33.3034 88.168 33.2456 88.3258C33.1889 88.4846 33.1636 88.6529 33.171 88.8214C33.1762 88.987 33.2121 89.1501 33.2769 89.3026C33.3373 89.4507 33.4273 89.585 33.5415 89.6971C33.6552 89.8151 33.7954 89.9042 33.9505 89.9569C34.047 89.9923 34.1485 90.0126 34.2512 90.0171C34.3538 90.0195 34.4564 90.0098 34.5568 89.9882C34.6575 89.9665 34.7553 89.9326 34.8479 89.8872C34.9394 89.8428 35.0265 89.7896 35.1077 89.7284L35.6418 90.2071Z" fill="white"/>
<path d="M37.5444 88.4383L37.287 89.35L39.012 89.8312L38.8339 90.4663L37.1114 89.9852L36.8708 90.844L38.8123 91.3877L38.6367 92.0181L36.012 91.2819L37.0344 87.6323L39.6615 88.3685L39.4859 88.9868L37.5444 88.4383Z" fill="white"/>
<path d="M42.2023 92.1744L42.0604 92.8023L39.4597 92.2128L40.2945 88.5176L40.985 88.674L40.2921 91.7437L42.2023 92.1744Z" fill="white"/>
<path d="M45.3296 92.7473L45.2141 93.38L42.5918 92.8989L43.2702 89.1699L43.9679 89.2974L43.4025 92.3937L45.3296 92.7473Z" fill="white"/>
<path d="M46.8883 90.4427L46.756 91.381L48.5291 91.6215L48.4377 92.2711L46.6646 92.0305L46.5395 92.9134L48.5387 93.1949L48.4473 93.8421L45.7456 93.4596L46.2773 89.7065L48.9766 90.0891L48.8851 90.7242L46.8883 90.4427Z" fill="white"/>
<path d="M52.3133 94.2419L50.1169 91.764L49.8931 94.0037L49.1882 93.934L49.5635 90.1689H49.6381L51.8322 92.6878L52.0607 90.4095L52.7656 90.4793L52.3903 94.2467L52.3133 94.2419Z" fill="white"/>
<path d="M56.6032 93.5843C56.5139 93.7289 56.4055 93.8609 56.2808 93.9764C56.1568 94.0915 56.0186 94.1901 55.8694 94.2699C55.718 94.3505 55.556 94.4096 55.3883 94.4455C54.9639 94.5397 54.52 94.4835 54.1325 94.2868C53.9112 94.1727 53.7136 94.0176 53.5503 93.8297C53.3855 93.6395 53.2581 93.42 53.175 93.1825C53.0893 92.9355 53.0533 92.6741 53.069 92.4132C53.0847 92.1522 53.1518 91.897 53.2664 91.6621C53.3771 91.4364 53.5298 91.2339 53.7163 91.0654C53.9 90.8971 54.115 90.7663 54.349 90.6805C54.758 90.5336 55.2054 90.5336 55.6144 90.6805C55.9351 90.7928 56.2195 90.9898 56.4372 91.2507C56.5478 91.3784 56.6401 91.5209 56.7114 91.6741L56.0354 91.9147C55.9847 91.829 55.9259 91.7485 55.8598 91.6741C55.7912 91.5972 55.7146 91.5278 55.6313 91.4672C55.5473 91.4074 55.4559 91.3589 55.3594 91.3228C55.2637 91.2865 55.1632 91.2646 55.0611 91.2579C54.897 91.2473 54.7326 91.2736 54.5799 91.3349C54.4316 91.3956 54.2961 91.4837 54.1806 91.5947C54.0652 91.7094 53.97 91.8428 53.8991 91.9892C53.827 92.1402 53.7846 92.3035 53.774 92.4704C53.7634 92.6392 53.7863 92.8085 53.8414 92.9684C53.8961 93.1225 53.9775 93.2659 54.0819 93.3918C54.1829 93.5148 54.3061 93.6176 54.4452 93.6949C54.5884 93.775 54.7481 93.8211 54.9119 93.8297C55.0146 93.8358 55.1177 93.8261 55.2175 93.8008C55.3175 93.7759 55.4137 93.7379 55.5037 93.6877C55.5906 93.638 55.6714 93.5782 55.7443 93.5097C55.8193 93.4417 55.8878 93.3667 55.9488 93.2859L56.6032 93.5843Z" fill="white"/>
<path d="M57.8423 91.3955L57.8207 92.3434L59.6106 92.3867L59.5937 93.0459L57.8038 93.0002L57.7822 93.8927L59.8006 93.9409L59.7838 94.5928L57.0701 94.5279L57.1615 90.7388L59.8872 90.8037L59.8728 91.4461L57.8423 91.3955Z" fill="white"/>
<path d="M64.6286 94.6048L64.1474 94.1237C64.046 94.2126 63.9373 94.2931 63.8227 94.3642C63.7316 94.4232 63.6358 94.4747 63.5364 94.5182C63.4591 94.5527 63.3785 94.5793 63.2958 94.5976C63.226 94.612 63.1683 94.6192 63.125 94.624C62.9865 94.6365 62.8469 94.6226 62.7136 94.5832C62.4595 94.5091 62.2428 94.3415 62.1074 94.114C62.0374 93.997 61.9924 93.8668 61.975 93.7315C61.9424 93.5466 61.9667 93.3562 62.0448 93.1854C62.1271 93.0193 62.2407 92.8707 62.3792 92.7476L62.5211 92.6321L62.6679 92.5214C62.5533 92.3891 62.4629 92.2376 62.4009 92.0739C62.3458 91.9199 62.3276 91.7551 62.3479 91.5928C62.3578 91.4528 62.3998 91.317 62.4706 91.1958C62.5408 91.0774 62.6341 90.9743 62.7449 90.8927C62.8609 90.8108 62.9929 90.7543 63.1322 90.7267C63.2716 90.6953 63.4162 90.6953 63.5556 90.7267C63.6949 90.7623 63.8247 90.8279 63.9357 90.9192C64.0464 91.0106 64.1352 91.1257 64.1956 91.256C64.2596 91.3828 64.2925 91.5229 64.2918 91.665C64.2925 91.8095 64.2613 91.9525 64.2004 92.0836C64.1485 92.1975 64.0731 92.2992 63.979 92.3819C63.8743 92.4699 63.7633 92.5503 63.647 92.6224L64.1041 93.0819C64.222 92.9015 64.3086 92.7596 64.364 92.6513C64.4193 92.5431 64.4482 92.4853 64.4482 92.4829L65.0689 92.774L64.963 92.9785C64.8711 93.1515 64.7699 93.3193 64.6599 93.4813L64.6262 93.5294L64.5973 93.5775L65.1531 94.1549L64.6286 94.6048ZM63.036 92.9977C62.95 93.046 62.8693 93.1033 62.7954 93.1686C62.7768 93.1845 62.7599 93.2022 62.7449 93.2215C62.7199 93.2498 62.6989 93.2814 62.6823 93.3153C62.6615 93.3596 62.6469 93.4066 62.639 93.4548C62.6282 93.5153 62.6282 93.5772 62.639 93.6377C62.6543 93.7329 62.705 93.8188 62.781 93.8783C62.8621 93.9462 62.9639 93.9844 63.0697 93.9865C63.1438 93.9878 63.2177 93.9772 63.2886 93.9552C63.3493 93.9348 63.4074 93.9073 63.4618 93.8735C63.5106 93.8433 63.5565 93.8087 63.5989 93.77C63.6363 93.7394 63.6709 93.7056 63.7024 93.669L63.036 92.9977ZM62.9879 91.6265C62.9817 91.7315 63.0015 91.8364 63.0456 91.932C63.0857 92.0273 63.1428 92.1145 63.214 92.1894C63.2597 92.1605 63.3102 92.1269 63.3608 92.0884C63.408 92.0527 63.4522 92.0133 63.4931 91.9705C63.5915 91.864 63.6442 91.7232 63.6398 91.5783C63.6408 91.5381 63.6326 91.4981 63.616 91.4615C63.5993 91.4248 63.5746 91.3924 63.5436 91.3666C63.4848 91.3153 63.4099 91.2864 63.3319 91.2848C63.2505 91.2855 63.1717 91.3135 63.1082 91.3642C63.0703 91.3966 63.04 91.4368 63.0192 91.4821C62.9984 91.5274 62.9877 91.5766 62.9879 91.6265Z" fill="white"/>
<path d="M68.8433 94.2965L67.3878 94.4095L67.0967 90.6325L68.5522 90.5194C69.0293 90.4643 69.5089 90.5991 69.8874 90.8947C70.0824 91.0502 70.2388 91.2486 70.3445 91.4745C70.5709 91.9813 70.6151 92.5507 70.4696 93.0864C70.4016 93.3149 70.2849 93.5259 70.1275 93.7049C69.9701 93.8839 69.7757 94.0267 69.5578 94.1233C69.3312 94.2213 69.0896 94.2799 68.8433 94.2965ZM68.0446 93.7143L68.7952 93.6565C68.93 93.646 69.0631 93.6202 69.1921 93.5796C69.3235 93.536 69.4435 93.4637 69.5434 93.3678C69.6525 93.2536 69.7347 93.1163 69.7839 92.9661C69.8462 92.758 69.865 92.5394 69.8393 92.3237C69.8303 92.1055 69.7779 91.8912 69.6853 91.6934C69.6148 91.5519 69.5117 91.429 69.3846 91.335C69.2698 91.2568 69.1392 91.2051 69.0021 91.1834C68.8708 91.1624 68.7376 91.1567 68.6051 91.1666L67.8521 91.2243L68.0446 93.7143Z" fill="white"/>
<path d="M72.0747 94.0009L71.3699 94.0755L70.9729 90.3104L71.6754 90.2358L72.0747 94.0009Z" fill="white"/>
<path d="M72.7842 93.4278L73.0873 92.8023C73.2841 92.9059 73.4894 92.9928 73.7008 93.0621C73.9046 93.1289 74.1209 93.1486 74.3335 93.1198C74.4369 93.1097 74.5377 93.082 74.6318 93.038C74.7083 93.0027 74.7782 92.9547 74.8387 92.8961C74.8898 92.8464 74.9285 92.7854 74.9518 92.7181C74.973 92.6596 74.9804 92.597 74.9734 92.5352C74.9656 92.4648 74.9322 92.3998 74.8796 92.3524C74.8221 92.3036 74.7548 92.2675 74.6823 92.2465C74.591 92.2209 74.4976 92.2032 74.4033 92.1936L74.0761 92.1695L73.8138 92.1551C73.7097 92.1497 73.6061 92.1376 73.5035 92.119C73.3935 92.1006 73.2855 92.0716 73.1811 92.0324C73.0738 91.9938 72.9731 91.9386 72.8828 91.8688C72.786 91.7983 72.7042 91.7091 72.6422 91.6066C72.5732 91.4895 72.5297 91.3592 72.5147 91.2241C72.4825 91.0347 72.5025 90.8401 72.5725 90.6611C72.6348 90.5092 72.734 90.3752 72.8612 90.2714C72.988 90.167 73.1321 90.0856 73.287 90.0308C73.4432 89.9767 73.6044 89.9381 73.7681 89.9153C73.906 89.8962 74.0452 89.8882 74.1843 89.8913C74.3018 89.8951 74.4187 89.9104 74.5332 89.937C74.6441 89.9618 74.7521 89.9981 74.8555 90.0452C74.9614 90.091 75.0769 90.1487 75.202 90.2137L74.8868 90.8319C74.7163 90.7395 74.5354 90.6677 74.3479 90.6178C74.1786 90.5724 74.0018 90.5618 73.8283 90.5865C73.7597 90.5982 73.6922 90.6151 73.6262 90.6371C73.5524 90.6627 73.4821 90.6975 73.4169 90.7405C73.3571 90.7818 73.3057 90.834 73.2653 90.8945C73.2266 90.9542 73.212 91.0265 73.2244 91.0966C73.2283 91.1321 73.2395 91.1665 73.2573 91.1976C73.2751 91.2286 73.2991 91.2557 73.3279 91.277C73.3956 91.3236 73.4715 91.3571 73.5516 91.3756C73.6462 91.4008 73.7428 91.4177 73.8403 91.4262L74.1386 91.4598C74.2132 91.4598 74.2974 91.4743 74.3936 91.4767C74.496 91.4824 74.598 91.4936 74.6992 91.5104C74.8082 91.5271 74.9154 91.5545 75.0191 91.5922C75.1259 91.6294 75.2258 91.6839 75.315 91.7533C75.4118 91.8279 75.4934 91.9201 75.5556 92.0252C75.6237 92.1558 75.6678 92.2976 75.6855 92.4438C75.7127 92.6182 75.7012 92.7964 75.6519 92.9659C75.6067 93.1158 75.5238 93.2516 75.4113 93.3604C75.2911 93.4761 75.1509 93.569 74.9975 93.6347C74.8195 93.7079 74.6327 93.7572 74.4417 93.7814C74.273 93.8065 74.1021 93.8145 73.9317 93.8055C73.792 93.7975 73.6534 93.7757 73.5179 93.7405C73.3926 93.7077 73.2702 93.6643 73.1523 93.6106C73.0296 93.5553 72.9093 93.4951 72.7842 93.4278Z" fill="white"/>
<path d="M79.6839 91.9004C79.6323 92.0625 79.5577 92.2164 79.4625 92.3575C79.3698 92.498 79.259 92.6258 79.133 92.7376C79.0066 92.8514 78.8649 92.9469 78.7119 93.0214C78.5545 93.0992 78.3868 93.1543 78.214 93.185C77.9618 93.231 77.7029 93.2236 77.4537 93.1634C77.2116 93.1047 76.9829 93.0002 76.7801 92.8555C76.5756 92.7094 76.4009 92.5257 76.2653 92.3142C76.1227 92.0953 76.0255 91.8502 75.9792 91.5932C75.9329 91.3362 75.9386 91.0725 75.9958 90.8178C76.0489 90.5718 76.1485 90.3382 76.2893 90.1297C76.4292 89.9229 76.6082 89.7456 76.8162 89.6077C77.1766 89.3649 77.611 89.2567 78.0431 89.3021C78.2121 89.3188 78.3781 89.3585 78.5363 89.42C78.6938 89.4805 78.8426 89.5613 78.979 89.6606C79.1161 89.7588 79.2391 89.8754 79.3447 90.007L78.7216 90.3919C78.6527 90.3188 78.5761 90.2535 78.493 90.1971C78.3251 90.078 78.1314 90.0005 77.9277 89.9709C77.8256 89.9553 77.7218 89.9553 77.6197 89.9709C77.4581 89.998 77.3049 90.0622 77.1723 90.1586C77.0433 90.2517 76.9331 90.3685 76.8475 90.5026C76.7596 90.6408 76.6984 90.7942 76.667 90.9549C76.6346 91.1193 76.6346 91.2885 76.667 91.4529C76.6964 91.6191 76.7585 91.7777 76.8499 91.9196C76.936 92.0574 77.046 92.1788 77.1747 92.2781C77.302 92.3742 77.4466 92.4452 77.6005 92.4874C77.7573 92.53 77.9216 92.5374 78.0816 92.509C78.1825 92.4903 78.2798 92.4562 78.3703 92.408C78.4616 92.3604 78.5465 92.3013 78.6229 92.2324C78.6982 92.1592 78.7659 92.0786 78.825 91.9918C78.8815 91.9075 78.9298 91.8181 78.9694 91.7247L79.6839 91.9004Z" fill="white"/>
<path d="M81.2478 92.495L80.5549 92.6466L79.7466 88.9489L80.437 88.7974L81.2478 92.495Z" fill="white"/>
<path d="M82.8646 88.2004C83.0356 88.1545 83.2143 88.1455 83.3891 88.1739C83.5595 88.1986 83.7232 88.2575 83.8702 88.3471C84.0168 88.4357 84.1451 88.5517 84.2479 88.6887C84.3591 88.8316 84.4409 88.9952 84.4885 89.1699C84.5341 89.3407 84.548 89.5185 84.5294 89.6944C84.5126 89.86 84.4601 90.0201 84.3754 90.1635C84.2844 90.3172 84.1603 90.4487 84.0121 90.5484C83.8356 90.6673 83.6393 90.7536 83.4324 90.8034L82.636 91.0103L82.9199 92.1025L82.2343 92.2806L81.272 88.6118L82.8646 88.2004ZM83.3698 90.1442C83.458 90.1213 83.5401 90.0795 83.6104 90.0215C83.6746 89.9716 83.7251 89.9062 83.7571 89.8315C83.7905 89.7556 83.8085 89.6738 83.8101 89.5909C83.8115 89.5098 83.8018 89.4288 83.7812 89.3503C83.7594 89.2644 83.7228 89.183 83.6729 89.1097C83.6231 89.0378 83.5603 88.9758 83.4877 88.9269C83.4153 88.8766 83.3334 88.8414 83.2471 88.8235C83.1479 88.8045 83.0457 88.8094 82.9488 88.8379L82.1116 89.0544L82.4556 90.3776L83.3698 90.1442Z" fill="white"/>
<path d="M88.0056 89.9307L88.2005 90.5418L85.6648 91.355L84.4956 87.7463L85.1692 87.5298L86.1315 90.525L88.0056 89.9307Z" fill="white"/>
<path d="M89.4801 90.046L88.8185 90.2866L87.4761 86.7477L88.1401 86.4951L89.4801 90.046Z" fill="white"/>
<path d="M93.3441 88.3381L90.1854 87.3325L91.1477 89.3702L90.5101 89.6709L88.9031 86.2451L88.9728 86.2114L92.1364 87.2651L91.1741 85.1913L91.8141 84.8906L93.4211 88.3189L93.3441 88.3381Z" fill="white"/>
<path d="M93.2743 84.7266L93.7964 85.5181L95.2904 84.5317L95.6536 85.0802L94.1597 86.0666L94.6408 86.81L96.3249 85.6985L96.6833 86.2422L94.4171 87.7458L92.3289 84.5822L94.5999 83.0786L94.9536 83.6151L93.2743 84.7266Z" fill="white"/>
<path d="M66.9575 35.9252C69.2787 35.9252 71.1604 33.799 71.1604 31.1762C71.1604 28.5534 69.2787 26.4272 66.9575 26.4272C64.6363 26.4272 62.7546 28.5534 62.7546 31.1762C62.7546 33.799 64.6363 35.9252 66.9575 35.9252Z" fill="#00923F"/>
<path d="M78.173 61.092C77.3599 59.2011 74.805 59.7159 74.6895 59.74C74.7063 59.7111 74.728 59.4272 74.5668 57.2043C76.7849 54.7071 77.9758 51.9332 77.9758 47.776C77.3286 42.4833 70.5179 39.084 70.5179 39.084H61.4433V42.1393H70.6117L70.7416 49.7103L70.5708 49.9244H75.9646V53.3647H68.0688V59.3791H64.2989V59.3093L64.1618 59.5355V49.5226H66.7817V47.776H64.1618V45.5916H62.088V47.776H59.4754V49.5226H62.0953V59.5186L57.3751 59.4777L55.8282 56.1529H53.574L53.6318 62.2973L52.2581 64.258V78.4833H57.8467V65.1313L59.7881 62.8723L65.2564 62.8362V77.8819H68.8242V70.5178C68.8242 70.5178 75.0455 65.3286 76.2821 64.5347C77.5187 63.7408 79.0054 63.0286 78.173 61.092ZM72.7865 57.8731H69.339V54.4328H72.7769L72.7865 57.8731Z" fill="#00923F"/>
</svg>
